<?xml version="1.0" standalone="no"?>
<!DOCTYPE svg PUBLIC "-//W3C//DTD SVG 20010904//EN"
 "http://www.w3.org/TR/2001/REC-SVG-20010904/DTD/svg10.dtd">
<svg version="1.0" xmlns="http://www.w3.org/2000/svg"
 width="2000.000000pt" height="1333.000000pt" viewBox="0 0 2000.000000 1333.000000"
 preserveAspectRatio="xMidYMid meet">
<metadata>
Created by potrace 1.16, written by Peter Selinger 2001-2019
</metadata>
<g transform="translate(0.000000,1333.000000) scale(0.100000,-0.100000)"
fill="#FFFFFF" stroke="none">
<path d="M5878 9870 c-59 -18 -57 -2 -57 -441 0 -222 0 -425 0 -451 l-1 -46
-207 -105 c-115 -58 -238 -121 -275 -140 -38 -20 -68 -33 -68 -30 0 3 -6 1
-13 -6 -18 -14 -234 -121 -246 -121 -5 0 -11 -3 -13 -7 -1 -5 -93 -53 -203
-108 -110 -55 -201 -103 -203 -107 -2 -5 -8 -8 -13 -8 -15 0 -553 -270 -569
-286 -17 -17 -23 -245 -7 -281 14 -32 36 -37 174 -38 67 0 125 -4 129 -7 3 -4
6 -225 6 -490 -1 -316 3 -492 10 -510 12 -33 24 -37 104 -35 45 2 68 7 83 21
21 19 21 24 21 516 0 389 3 499 13 502 17 6 957 2 963 -4 3 -3 21 -2 40 2 18
4 34 4 34 0 0 -5 10 -6 23 -4 24 6 89 5 95 -1 2 -2 15 0 29 6 13 5 22 6 20 1
-3 -4 8 -7 24 -7 16 0 29 4 29 8 0 5 6 5 13 0 19 -12 1916 -14 1955 -1 48 15
62 50 61 160 0 51 0 102 0 112 0 19 -34 70 -47 72 -7 0 -331 162 -423 211 -30
16 -70 35 -89 43 -19 8 -37 17 -40 20 -3 4 -72 40 -155 81 -82 41 -153 79
-157 84 -4 6 -8 6 -8 1 0 -4 -11 -1 -25 8 -14 9 -164 87 -333 172 -169 86
-356 181 -417 212 -60 31 -113 60 -116 64 -3 5 -5 84 -5 176 l1 167 316 0
c276 0 317 2 331 16 14 14 16 45 16 217 0 173 -3 203 -17 215 -13 12 -71 14
-326 13 -170 -1 -316 0 -322 2 -8 3 -13 22 -13 48 0 31 -6 49 -22 63 -11 11
-25 18 -29 15 -4 -2 -10 0 -14 6 -7 12 -19 12 -57 0z m156 -1284 c60 -33 380
-197 786 -403 113 -58 207 -107 210 -109 2 -3 -1 -8 -7 -12 -6 -4 -338 -7
-737 -7 -452 0 -726 -4 -726 -9 0 -6 -5 -5 -11 1 -7 7 -21 8 -40 3 -17 -5 -29
-5 -29 0 0 6 -10 6 -22 1 -13 -5 -33 -5 -45 0 -13 5 -23 5 -23 1 0 -4 -20 -7
-45 -7 -25 0 -45 4 -45 8 0 5 -5 5 -12 1 -14 -9 -516 -12 -529 -3 -6 3 133 77
308 165 175 87 320 162 323 165 3 3 22 12 43 20 20 7 37 17 37 22 0 4 4 6 9 3
5 -4 11 -3 13 1 1 5 75 44 163 87 88 44 163 84 167 90 4 6 8 8 8 4 0 -3 17 2
37 12 44 21 75 15 167 -34z"/>
<path d="M9655 8638 c-116 -27 -216 -81 -294 -158 -36 -36 -75 -83 -86 -105
-11 -22 -22 -42 -25 -45 -3 -3 -7 -12 -9 -20 -2 -8 -4 -19 -6 -25 -1 -5 -5
-17 -9 -25 -3 -8 -8 -50 -10 -94 -7 -144 33 -249 130 -343 38 -37 92 -75 131
-95 37 -18 70 -33 73 -34 3 0 43 -12 90 -26 96 -28 297 -87 320 -92 60 -16
136 -54 172 -88 36 -34 71 -124 58 -149 -5 -9 -7 -19 -5 -21 3 -3 -1 -20 -9
-39 -40 -96 -159 -149 -317 -143 -188 7 -278 57 -339 189 -15 33 -30 67 -33
77 -5 14 -21 16 -134 12 -179 -5 -177 -5 -182 -34 -9 -66 44 -197 118 -291 75
-96 216 -179 360 -214 110 -27 311 -27 436 -1 49 10 111 29 120 36 6 4 19 10
30 12 11 1 22 5 25 8 3 3 24 17 46 32 50 32 145 128 138 140 -3 4 -1 8 4 8 11
0 50 92 59 137 3 15 6 84 6 153 1 143 -12 185 -84 271 -36 43 -160 132 -164
119 -1 -3 -8 0 -16 6 -23 18 -195 68 -305 89 -10 2 -19 4 -19 5 0 1 -12 3 -26
5 -20 3 -76 17 -119 30 -117 37 -209 109 -227 180 -39 154 91 265 294 253 80
-5 190 -38 205 -60 4 -7 8 -10 8 -5 0 15 63 -53 82 -90 45 -86 33 -81 170 -78
68 1 134 5 147 9 22 8 23 12 18 60 -4 31 -23 84 -49 135 -85 170 -236 276
-448 317 -75 14 -244 10 -325 -8z"/>
<path d="M12914 8605 c-10 -16 -54 -122 -59 -145 -1 -3 -7 -18 -14 -35 -6 -16
-30 -77 -52 -135 -23 -58 -47 -118 -54 -135 -13 -30 -49 -126 -51 -135 -1 -7
-23 -61 -34 -85 -10 -23 -130 -335 -134 -350 -2 -5 -11 -28 -20 -50 -31 -72
-33 -79 -61 -150 -15 -38 -32 -81 -38 -95 -6 -14 -11 -27 -12 -30 -1 -3 -5
-14 -10 -25 -70 -171 -124 -323 -119 -337 6 -20 44 -45 44 -29 0 6 6 8 14 5
23 -9 257 -11 262 -2 3 5 9 6 14 3 10 -6 35 34 26 42 -3 4 -2 11 3 17 4 6 32
81 61 166 29 85 56 157 61 160 4 3 174 6 376 5 l367 0 31 -75 c17 -42 48 -124
69 -182 21 -59 44 -116 51 -125 12 -16 32 -18 168 -18 191 1 196 3 162 81 -13
30 -24 55 -24 57 0 4 -43 118 -64 167 -6 14 -11 27 -11 30 -1 5 -20 53 -41
105 -7 17 -18 46 -25 65 -7 19 -19 49 -26 65 -14 32 -173 443 -178 460 -2 6
-8 24 -15 40 -53 129 -95 241 -93 248 1 4 -2 7 -6 7 -5 0 -9 6 -9 13 -1 19
-37 112 -45 115 -5 2 -8 10 -8 18 0 11 -27 86 -65 179 -5 11 -7 23 -7 28 1 4
-3 7 -10 7 -6 0 -9 3 -5 6 9 9 -21 64 -36 65 -6 1 -92 2 -191 3 -169 2 -179 1
-192 -19z m226 -397 c7 -24 17 -47 20 -53 4 -5 13 -28 20 -50 7 -22 15 -44 19
-50 3 -5 6 -14 8 -20 1 -5 14 -41 28 -80 14 -38 32 -88 40 -110 8 -22 23 -65
35 -95 12 -30 23 -59 24 -65 2 -5 9 -23 15 -40 7 -16 15 -44 18 -61 l5 -31
-250 1 c-138 1 -254 4 -258 9 -7 7 11 70 41 142 15 36 135 346 139 360 2 6 8
23 14 38 7 16 12 34 12 41 0 6 5 17 12 24 7 7 8 12 4 12 -5 0 -4 6 1 13 6 6
13 25 17 40 9 36 19 29 36 -25z"/>
<path d="M10843 8612 c-16 -11 -12 -1717 5 -1734 10 -10 108 -12 469 -10 250
1 460 5 464 8 5 3 9 1 9 -4 0 -5 12 -8 28 -6 15 2 60 4 100 5 44 1 78 6 86 14
17 17 16 269 -1 286 -11 11 -281 14 -691 6 -68 -1 -128 1 -133 4 -14 8 -15
409 -2 417 6 4 173 7 372 7 351 0 360 0 369 20 10 22 9 235 -1 251 -4 7 -135
11 -372 11 -201 0 -369 3 -372 7 -3 3 -6 96 -7 207 -1 146 2 203 11 211 8 6
150 8 412 4 295 -5 401 -3 407 5 9 16 11 232 1 268 l-7 29 -568 0 c-313 0
-573 -3 -579 -6z"/>
<path d="M14265 8610 c-9 -15 -6 -1710 4 -1728 8 -15 28 -17 160 -16 83 0 154
4 158 8 4 4 8 154 9 334 1 180 2 330 3 333 0 3 157 7 349 8 215 1 351 6 357
12 16 16 12 268 -4 279 -8 4 -160 8 -340 8 -179 0 -335 1 -346 1 -19 1 -20 8
-20 224 0 122 4 228 9 236 7 11 75 12 401 8 305 -5 394 -4 397 6 4 10 3 268
-1 288 -2 10 -1130 9 -1136 -1z"/>
<path d="M6460 7470 c-122 -3 -194 -9 -193 -15 4 -28 13 -96 19 -150 3 -33 11
-63 18 -67 6 -4 28 -8 49 -9 20 -1 43 -2 50 -3 9 -1 12 -155 12 -736 l0 -735
-47 -8 c-37 -7 -48 -14 -56 -35 -9 -22 -10 -132 -4 -190 2 -10 52 -12 230 -10
l227 3 -3 100 c-2 87 -5 102 -23 118 -12 9 -31 17 -44 17 -13 0 -24 7 -27 18
-3 14 -3 1414 1 1450 1 7 17 12 45 12 24 0 48 6 53 13 5 6 10 60 11 119 l2
106 -62 4 c-35 1 -151 1 -258 -2z"/>
<path d="M7145 7470 c-33 -4 -40 -9 -38 -25 1 -11 3 -56 4 -100 2 -104 8 -113
67 -117 l47 -3 3 -733 c2 -581 0 -733 -10 -736 -7 -3 -25 -7 -40 -10 -37 -8
-47 -30 -48 -112 -3 -115 -2 -122 23 -130 36 -12 427 -12 435 0 7 12 4 180 -4
208 -5 17 -23 27 -64 35 -13 2 -27 7 -30 9 -10 10 -17 1445 -7 1461 4 6 27 13
52 16 25 2 48 7 51 9 2 3 7 52 10 109 3 57 8 107 11 112 5 8 -2 8 -242 10 -99
1 -198 0 -220 -3z"/>
<path d="M5419 7222 c-12 -14 -14 -130 -13 -722 0 -388 4 -715 8 -727 10 -32
40 -37 215 -36 129 1 157 4 166 17 7 9 15 13 18 9 4 -3 7 322 7 724 0 611 -2
732 -14 742 -9 8 -71 11 -193 11 -155 -1 -182 -4 -194 -18z"/>
<path d="M4835 6757 c-13 -21 -15 -86 -13 -502 l3 -478 27 -20 c22 -17 42 -19
135 -19 175 0 189 1 213 20 l23 19 0 492 c0 412 -2 494 -14 502 -8 5 -92 9
-186 9 -170 0 -173 0 -188 -23z"/>
<path d="M15300 6487 c-29 -7 -30 -10 -31 -65 -3 -356 1 -1525 6 -1541 5 -18
15 -21 63 -22 148 -2 163 2 161 51 -1 14 -1 30 0 35 1 6 1 350 1 765 0 623 -2
757 -14 768 -15 15 -138 22 -186 9z"/>
<path d="M10866 6473 c-10 -3 -28 -14 -39 -24 -12 -10 -24 -19 -28 -19 -4 0
-14 -19 -24 -42 -31 -77 8 -165 80 -184 143 -37 250 70 195 194 -9 21 -29 46
-44 55 -28 19 -107 30 -140 20z"/>
<path d="M12751 6469 c-122 -48 -107 -244 20 -267 69 -13 122 3 162 47 32 35
35 44 33 89 -5 87 -65 143 -153 141 -21 0 -49 -5 -62 -10z"/>
<path d="M9189 6449 c-6 -4 -10 -293 -11 -789 0 -651 2 -784 13 -791 17 -10
682 -5 699 6 7 5 25 10 39 11 14 2 33 5 41 7 61 16 76 21 88 30 6 5 12 6 12 3
0 -12 153 74 190 106 85 73 96 85 153 161 58 77 121 243 133 352 7 64 2 224
-9 275 -21 98 -32 140 -39 140 -4 0 -8 7 -8 16 0 17 -46 104 -82 156 -33 47
-137 153 -178 180 -41 28 -169 91 -190 94 -8 1 -40 10 -70 19 -30 9 -75 18
-100 21 -69 7 -670 10 -681 3z m641 -233 c81 -11 178 -47 240 -88 91 -61 174
-176 205 -287 17 -60 18 -68 18 -186 1 -99 -3 -140 -14 -160 -4 -5 -5 -18 -4
-27 2 -10 -1 -18 -6 -18 -5 0 -9 -8 -9 -18 0 -30 -67 -133 -118 -184 -45 -44
-167 -119 -201 -124 -9 -2 -43 -9 -77 -17 -41 -9 -120 -14 -250 -13 l-189 1
-2 562 -2 562 42 3 c75 5 311 1 367 -6z"/>
<path d="M4234 6363 c-18 -13 -19 -33 -21 -281 -3 -312 -2 -329 33 -338 38
-10 277 -11 313 -2 57 15 61 36 61 336 0 239 -2 271 -17 283 -23 20 -342 22
-369 2z"/>
<path d="M13329 6310 c-1 -8 -1 -31 0 -50 2 -171 1 -223 -4 -228 -3 -3 -40 -7
-83 -7 -118 -2 -117 -1 -116 -90 1 -41 6 -81 13 -88 8 -11 34 -14 94 -13 45 0
87 -3 92 -8 10 -9 11 -517 1 -543 -3 -7 -2 -13 2 -13 4 0 7 -35 8 -78 0 -100
24 -176 70 -230 40 -47 108 -86 170 -98 58 -11 193 -8 241 5 l41 11 -1 90 c-2
103 2 100 -112 95 -39 -2 -76 1 -82 7 -7 6 -13 7 -13 4 0 -4 -13 1 -29 10 -30
18 -49 49 -58 94 -8 38 -9 631 -1 636 3 2 65 5 137 6 72 1 137 5 143 9 14 9
19 161 7 181 -6 9 -46 13 -143 13 -74 0 -138 3 -141 7 -9 8 -10 176 -2 185 4
3 2 12 -4 20 -9 9 -8 13 0 13 8 0 9 5 1 19 -5 11 -7 27 -4 35 7 19 15 18 -118
20 -91 1 -108 -1 -109 -14z"/>
<path d="M3780 6232 c-19 -2 -39 -7 -45 -12 -7 -5 -10 -277 -10 -787 0 -706 2
-780 17 -801 l16 -24 1022 1 c732 0 1026 3 1034 11 15 15 21 199 7 213 -7 7
-96 11 -268 11 l-258 1 -1 195 c0 107 3 202 8 212 7 14 32 16 245 13 131 -1
248 1 261 6 23 9 24 12 20 99 -2 55 -8 94 -16 102 -10 10 -192 13 -930 13
-504 0 -921 3 -927 7 -6 4 -10 133 -9 357 1 244 -2 355 -10 365 -11 15 -91 24
-156 18z m624 -973 c11 -11 8 -391 -4 -403 -11 -11 -449 -18 -451 -7 -6 26 -4
390 2 402 7 13 37 15 228 15 120 -1 222 -3 225 -7z m673 -2 c7 -7 10 -406 3
-408 -27 -8 -453 -3 -457 5 -5 7 -8 362 -4 398 1 3 9 8 18 10 28 5 434 0 440
-5z"/>
<path d="M11685 6038 c-27 -5 -54 -13 -60 -17 -5 -5 -22 -11 -36 -14 -68 -17
-182 -104 -235 -182 -46 -68 -80 -171 -90 -270 -2 -27 -6 -65 -8 -82 -2 -18 0
-33 3 -33 3 0 7 -24 8 -53 2 -69 17 -125 58 -214 42 -91 134 -187 220 -231 57
-28 73 -33 155 -48 162 -30 344 31 449 149 8 9 19 17 24 17 15 0 4 -201 -14
-252 -27 -74 -76 -133 -144 -170 -70 -37 -232 -42 -320 -8 -17 6 -30 10 -31 8
-1 -9 -105 98 -110 115 -14 43 -33 51 -111 49 -96 -4 -134 -9 -144 -19 -11
-11 7 -75 37 -135 58 -114 207 -212 359 -235 59 -9 255 -10 305 -1 92 16 194
64 261 125 44 40 104 133 115 178 4 17 9 35 13 40 11 20 12 68 15 658 2 538 1
599 -13 606 -26 14 -190 9 -202 -5 -6 -8 -9 -42 -7 -79 1 -36 0 -65 -4 -65 -4
0 -26 20 -49 44 -34 38 -179 126 -179 110 0 -2 -10 1 -22 7 -28 15 -178 19
-243 7z m244 -201 c107 -31 212 -144 237 -253 15 -70 12 -179 -8 -242 -22 -71
-19 -67 -79 -135 -180 -204 -488 -139 -565 119 -18 61 -27 254 -12 254 4 0 8
8 8 18 0 31 46 116 84 154 19 20 64 50 98 67 51 24 74 29 131 29 38 0 86 -5
106 -11z"/>
<path d="M14425 6040 c-61 -12 -158 -48 -167 -62 -4 -7 -8 -9 -8 -5 0 11 -45
-21 -91 -64 -41 -40 -89 -131 -96 -186 -4 -34 -2 -40 18 -49 13 -5 62 -10 109
-9 l84 0 26 52 c44 91 127 134 251 129 108 -4 190 -54 220 -134 11 -28 19
-121 12 -138 -3 -9 -46 -12 -156 -13 -84 -1 -168 -4 -187 -7 -19 -3 -46 -7
-60 -8 -104 -11 -211 -58 -263 -115 -82 -91 -108 -194 -79 -309 34 -136 129
-227 277 -265 50 -12 178 -15 225 -3 58 14 155 71 201 119 27 28 49 45 50 39
1 -7 2 -38 3 -69 0 -32 5 -64 9 -70 9 -14 161 -19 191 -7 15 6 16 48 16 408
-1 224 -5 421 -11 446 -31 144 -127 248 -275 301 -64 23 -226 33 -299 19z
m360 -718 c-4 -32 -12 -63 -18 -71 -7 -8 -10 -15 -7 -16 13 -6 -66 -108 -103
-133 -60 -41 -95 -53 -167 -56 -81 -4 -129 9 -175 46 -100 83 -70 217 60 266
44 16 63 18 249 19 l168 1 -7 -56z"/>
<path d="M10803 6006 c-5 -12 -7 -93 -6 -181 2 -88 3 -200 3 -250 0 -49 -1
-94 -1 -100 1 -185 1 -268 0 -305 0 -25 0 -47 1 -50 0 -3 2 -60 3 -127 1 -67
5 -124 9 -128 12 -12 186 -9 201 4 12 10 15 101 15 576 0 408 -4 567 -12 573
-6 5 -55 9 -108 9 -88 -1 -97 -2 -105 -21z"/>
<path d="M12711 6016 c-13 -17 -8 -1133 5 -1146 12 -12 158 -17 192 -6 l22 7
0 568 c0 444 -3 571 -13 579 -16 14 -195 12 -206 -2z"/>
<path d="M6075 5303 c-17 -17 -17 -14 -20 -120 -2 -73 0 -85 19 -101 23 -22
28 -22 141 -22 44 1 427 3 850 4 424 2 773 4 778 5 9 1 9 202 -1 218 -4 6 -19
16 -33 21 -16 6 -348 10 -873 10 -733 0 -848 -2 -861 -15z"/>
<path d="M6298 4855 c-3 -4 -54 -6 -112 -7 -105 0 -107 0 -119 -26 -18 -38
-14 -192 6 -207 10 -7 319 -10 1002 -10 l988 1 17 21 c14 17 17 39 16 98 -2
86 -17 110 -76 121 -52 9 -430 10 -430 1 0 -5 -5 -5 -11 -1 -14 8 -416 7 -430
-1 -5 -4 -9 -3 -9 2 0 7 -93 9 -110 2 -3 -1 -9 0 -15 1 -8 1 -413 0 -450 -1
-5 -1 -41 0 -80 0 -38 1 -94 0 -123 -1 -28 -2 -53 1 -55 5 -1 5 -5 5 -9 2z"/>
</g>
</svg>
